PathFileType	4	(X/Y/Z)	C:\Users\86182\Documents\cortex\Trimmed_M4_L10.trc
DataRate	CameraRate	NumFrames	NumMarkers	Units	OrigDataRate	OrigDataStartFrame	OrigNumFrames
100.00	100.00	       130	2	mm	100.00	1	       901
Frame#	Time	gripper			box			
		X1	Y1	Z1	X2	Y2	Z2	

1	0.000	275.51144	149.29048	192.10384	278.92145	146.23619	57.09851	
2	0.010	275.51166	149.28802	192.10086	278.92322	146.23608	57.09729	
3	0.020	275.51126	149.28508	192.09802	278.92456	146.23599	57.09624	
4	0.030	275.51004	149.28209	192.09567	278.92487	146.23599	57.09574	
5	0.040	275.50851	149.27971	192.09444	278.92407	146.23607	57.09594	
6	0.050	275.50748	149.27838	192.09471	278.92239	146.23619	57.09686	
7	0.060	275.50732	149.27824	192.09648	278.92004	146.23631	57.09855	
8	0.070	275.50842	149.27919	192.09935	278.91690	146.23645	57.10126	
9	0.080	275.51099	149.28105	192.10289	278.91278	146.23660	57.10521	
10	0.090	275.51508	149.28365	192.10683	278.90796	146.23677	57.11028	
11	0.100	275.52014	149.28665	192.11089	278.90317	146.23694	57.11589	
12	0.110	275.52539	149.28963	192.11449	278.89929	146.23711	57.12112	
13	0.120	275.52994	149.29214	192.11694	278.89713	146.23727	57.12489	
14	0.130	275.53339	149.29408	192.11804	278.89709	146.23747	57.12633	
15	0.140	275.53561	149.29553	192.11809	278.89941	146.23764	57.12525	
16	0.150	275.53668	149.29669	192.11761	278.90402	146.23769	57.12203	
17	0.160	275.53674	149.29756	192.11687	278.91040	146.23764	57.11738	
18	0.170	275.53595	149.29791	192.11583	278.91718	146.23752	57.11218	
19	0.180	275.53464	149.29744	192.11438	278.92285	146.23738	57.10724	
20	0.190	275.53311	149.29611	192.11252	278.92654	146.23721	57.10296	
21	0.200	275.53152	149.29424	192.11058	278.92850	146.23701	57.09944	
22	0.210	275.53000	149.29228	192.10890	278.92935	146.23683	57.09663	
23	0.220	275.52866	149.29059	192.10768	278.92966	146.23674	57.09454	
24	0.230	275.52780	149.28941	192.10715	278.92969	146.23679	57.09314	
25	0.240	275.52744	149.28889	192.10736	278.92950	146.23697	57.09241	
26	0.250	275.52747	149.28899	192.10826	278.92926	146.23724	57.09220	
27	0.260	275.52762	149.28958	192.10965	278.92899	146.23749	57.09233	
28	0.270	275.52777	149.29059	192.11151	278.92859	146.23759	57.09276	
29	0.280	275.52792	149.29192	192.11380	278.92773	146.23749	57.09355	
30	0.290	275.52805	149.29340	192.11644	278.92621	146.23724	57.09479	
31	0.300	275.52823	149.29478	192.11917	278.92398	146.23698	57.09649	
32	0.310	275.52838	149.29582	192.12160	278.92111	146.23682	57.09848	
33	0.320	275.52838	149.29636	192.12314	278.91806	146.23674	57.10047	
34	0.330	275.52814	149.29640	192.12341	278.91537	146.23674	57.10208	
35	0.340	275.52774	149.29617	192.12248	278.91376	146.23676	57.10294	
36	0.350	275.52731	149.29597	192.12091	278.91342	146.23676	57.10295	
37	0.360	275.52704	149.29604	192.11938	278.91425	146.23671	57.10222	
38	0.370	275.52670	149.29626	192.11821	278.91589	146.23662	57.10097	
39	0.380	275.52591	149.29637	192.11722	278.91797	146.23651	57.09948	
40	0.390	275.52454	149.29613	192.11615	278.91983	146.23642	57.09817	
41	0.400	275.52277	149.29543	192.11497	278.92093	146.23637	57.09741	
42	0.410	275.52121	149.29434	192.11401	278.92093	146.23639	57.09740	
43	0.420	275.52026	149.29317	192.11363	278.91977	146.23647	57.09821	
44	0.430	275.52029	149.29231	192.11403	278.91754	146.23660	57.09976	
45	0.440	275.52124	149.29208	192.11508	278.91467	146.23679	57.10179	
46	0.450	275.52283	149.29247	192.11650	278.91177	146.23695	57.10384	
47	0.460	275.52460	149.29317	192.11803	278.90961	146.23708	57.10541	
48	0.470	275.52643	149.29396	192.11948	278.90872	146.23711	57.10612	
49	0.480	275.52829	149.29465	192.12070	278.90961	146.23703	57.10572	
50	0.490	275.53000	149.29520	192.12146	278.91229	146.23683	57.10423	
51	0.500	275.53125	149.29561	192.12166	278.91632	146.23651	57.10207	
52	0.510	275.53198	149.29597	192.12134	278.92081	146.23613	57.09991	
53	0.520	275.53220	149.29637	192.12073	278.92490	146.23572	57.09829	
54	0.530	275.53177	149.29675	192.11998	278.92822	146.23535	57.09734	
55	0.540	275.53076	149.29709	192.11926	278.93076	146.23505	57.09673	
56	0.550	275.52948	149.29738	192.11885	278.93250	146.23486	57.09596	
57	0.560	275.52853	149.29770	192.11911	278.93350	146.23483	57.09478	
58	0.570	275.52841	149.29814	192.12006	278.93396	146.23491	57.09330	
59	0.580	275.52893	149.29869	192.12135	278.93408	146.23505	57.09184	
60	0.590	275.52933	149.29910	192.12230	278.93408	146.23520	57.09058	
61	0.600	275.52905	149.29897	192.12215	278.93408	146.23535	57.08961	
62	0.610	275.52811	149.29793	192.12051	278.93423	146.23550	57.08888	
63	0.620	275.52692	149.29605	192.11768	278.93457	146.23570	57.08834	
64	0.630	275.52588	149.29379	192.11421	278.93509	146.23598	57.08794	
65	0.640	275.52515	149.29160	192.11070	278.93573	146.23636	57.08767	
66	0.650	275.52463	149.28978	192.10754	278.93631	146.23685	57.08755	
67	0.660	275.52420	149.28842	192.10477	278.93649	146.23741	57.08773	
68	0.670	275.52377	149.28749	192.10245	278.93585	146.23793	57.08840	
69	0.680	275.52353	149.28702	192.10092	278.93390	146.23827	57.08989	
70	0.690	275.52383	149.28712	192.10071	278.93027	146.23834	57.09243	
71	0.700	275.52499	149.28787	192.10199	278.92499	146.23822	57.09610	
72	0.710	275.52710	149.28918	192.10460	278.91849	146.23808	57.10070	
73	0.720	275.52994	149.29089	192.10809	278.91135	146.23801	57.10588	
74	0.730	275.53308	149.29277	192.11186	278.90411	146.23801	57.11123	
75	0.740	275.53598	149.29454	192.11517	278.89743	146.23808	57.11616	
76	0.750	275.53802	149.29590	192.11732	278.89230	146.23820	57.11993	
77	0.760	275.53894	149.29660	192.11786	278.88928	146.23840	57.12201	
78	0.770	275.53870	149.29654	192.11665	278.88840	146.23868	57.12251	
79	0.780	275.53745	149.29576	192.11398	278.88925	146.23900	57.12184	
80	0.790	275.53564	149.29443	192.11058	278.89148	146.23932	57.12050	
81	0.800	275.53384	149.29298	192.10747	278.89450	146.23958	57.11898	
82	0.810	275.53244	149.29190	192.10547	278.89774	146.23965	57.11764	
83	0.820	275.53168	149.29149	192.10484	278.90088	146.23949	57.11652	
84	0.830	275.53149	149.29181	192.10527	278.90384	146.23914	57.11537	
85	0.840	275.53159	149.29259	192.10612	278.90649	146.23872	57.11383	
86	0.850	275.53159	149.29344	192.10680	278.90860	146.23833	57.11186	
87	0.860	275.53113	149.29398	192.10692	278.90976	146.23798	57.10995	
88	0.870	275.53021	149.29398	192.10652	278.90979	146.23770	57.10866	
89	0.880	275.52924	149.29343	192.10596	278.90872	146.23752	57.10837	
90	0.890	275.52869	149.29250	192.10558	278.90640	146.23744	57.10927	
91	0.900	275.52887	149.29144	192.10542	278.90277	146.23749	57.11147	
92	0.910	275.52991	149.29051	192.10538	278.89792	146.23764	57.11478	
93	0.920	275.53165	149.28979	192.10530	278.89246	146.23787	57.11863	
94	0.930	275.53357	149.28931	192.10522	278.88718	146.23813	57.12225	
95	0.940	275.53510	149.28905	192.10527	278.88248	146.23837	57.12526	
96	0.950	275.53568	149.28914	192.10577	278.87848	146.23857	57.12759	
97	0.960	275.53458	149.28966	192.10692	278.87549	146.23869	57.12920	
98	0.970	275.53101	149.29070	192.10886	278.87381	146.23871	57.13002	
99	0.980	275.52438	149.29240	192.11169	278.87344	146.23863	57.13012	
100	0.990	275.51456	149.29521	192.11583	278.87427	146.23853	57.12969	
101	1.000	275.50198	149.29964	192.12170	278.87589	146.23851	57.12904	
102	1.010	275.48813	149.30603	192.12933	278.87769	146.23871	57.12862	
103	1.020	275.47589	149.31424	192.13776	278.87891	146.23933	57.12909	
104	1.030	275.46991	149.32326	192.14482	278.87854	146.24057	57.13124	
105	1.040	275.47720	149.33107	192.14722	278.87570	146.24252	57.13571	
106	1.050	275.50793	149.33429	192.14032	278.87000	146.24522	57.14264	
107	1.060	275.57431	149.32855	192.11884	278.86124	146.24850	57.15173	
108	1.070	275.68808	149.30977	192.07800	278.84937	146.25204	57.16249	
109	1.080	275.85544	149.27588	192.01587	278.83475	146.25540	57.17412	
110	1.090	276.07025	149.22850	191.93604	278.81839	146.25768	57.18579	
111	1.100	276.30963	149.17348	191.84950	278.80191	146.25740	57.19735	
112	1.110	276.54083	149.11879	191.77211	278.78705	146.25264	57.21001	
113	1.120	276.73657	149.07079	191.71851	278.77557	146.24135	57.22672	
114	1.130	276.88196	149.03267	191.69896	278.76926	146.22188	57.25188	
115	1.140	276.97043	149.00604	191.72055	278.77005	146.19363	57.29076	
116	1.150	276.99847	148.99214	191.78896	278.77936	146.15800	57.34902	
117	1.160	276.96451	148.99182	191.90900	278.79727	146.11848	57.43216	
118	1.170	276.87119	149.00436	192.08366	278.82300	146.08000	57.54468	
119	1.180	276.72815	149.02699	192.31177	278.85492	146.04773	57.68942	
120	1.190	276.55334	149.05597	192.58537	278.88962	146.02574	57.86802	
121	1.200	276.37341	149.08772	192.88963	278.92123	146.01549	58.08135	
122	1.210	276.22275	149.11858	193.20586	278.94330	146.01550	58.32919	
123	1.220	276.13190	149.14536	193.51894	278.95178	146.02267	58.60931	
124	1.230	276.10638	149.16765	193.82680	278.94702	146.03374	58.91751	
125	1.240	276.12012	149.18874	194.14201	278.93341	146.04625	59.24877	
126	1.250	276.13712	149.21237	194.48001	278.91788	146.05865	59.59914	
127	1.260	276.14322	149.23814	194.84424	278.90530	146.07042	59.96716	
128	1.270	276.15329	149.26111	195.22435	278.89499	146.08249	60.35319	
129	1.280	276.18512	149.27721	195.60889	278.88232	146.09709	60.75600	
130	1.290	276.23331	149.28796	195.99707	278.86484	146.11618	61.17054	
